; NON-PLATED HOLES START AT T1
; THROUGH (PLATED) HOLES START AT T100
M48
INCH
T1C0.125984
T100C0.039370
T101C0.030000
T102C0.015748
T103C0.045000
T104C0.038779
T105C0.036000
T106C0.038000
T107C0.035000
%
T1
X002596Y018131
X002596Y003754
X033132Y003754
X033132Y018131
T100
X030786Y009703
X031688Y020329
X030786Y011715
X030668Y020329
X030786Y010696
X001814Y009420
X001814Y012426
X001814Y010425
X001814Y011437
X029676Y020329
T101
X026122Y008311
X010155Y005761
X013159Y006086
X026122Y006311
X013159Y008086
X010155Y006761
T102
X007473Y007411
X006618Y008625
X028415Y017089
X011492Y004545
X013841Y006693
X010660Y004540
X027835Y016123
T103
X031731Y005660
X031576Y001561
X031741Y007651
T104
X010610Y020279
X025604Y020279
X020606Y010422
X016612Y010422
X023607Y020279
X024600Y020279
X008613Y020279
X022603Y010422
X021610Y020279
X021610Y010422
X024600Y010422
X026607Y020279
X013611Y010422
X012607Y020279
X019613Y020279
X025604Y010422
X020606Y020279
X022603Y020279
X011614Y020279
X008613Y010422
X015608Y010422
X010610Y010422
X009617Y020279
X013611Y020279
X018609Y020279
X014615Y010422
X011614Y010422
X009617Y010422
X015608Y020279
X018609Y010422
X017605Y020279
X026607Y010422
X014615Y020279
X012607Y010422
X016612Y020279
X019613Y010422
X017605Y010422
X023607Y010422
T105
X003524Y020788
X026448Y002244
X029443Y003229
X024443Y002244
X029443Y002234
X005529Y020788
X027438Y003229
X024443Y003219
X004507Y019792
X005529Y019792
X028443Y003229
X025483Y003219
X026448Y003219
X003524Y019792
X025448Y002244
X028448Y002228
X027438Y002234
X004507Y020788
T106
X008465Y002950
X009465Y002950
X007456Y002950
X006456Y002950
T107
X008602Y007595
X023885Y005111
X020885Y008111
X004817Y006487
X020885Y005111
X008817Y006487
X004602Y007595
X021885Y005111
X019885Y008111
X023885Y008111
X017885Y005111
X018885Y008111
X019885Y005111
X017885Y008111
X022885Y005111
X021885Y008111
X022885Y008111
X018885Y005111
T00
M30
